<?xml version="1.0" encoding="utf-8"?>
<!-- Generator: Adobe Illustrator 24.1.0, SVG Export Plug-In . SVG Version: 6.00 Build 0)  -->
<svg version="1.1" id="Layer_1" xmlns="http://www.w3.org/2000/svg" xmlns:xlink="http://www.w3.org/1999/xlink" x="0px" y="0px"
	 viewBox="0 0 1366 768" style="enable-background:new 0 0 1366 768;" xml:space="preserve">
<style type="text/css">
	.st0{fill:url(#SVGID_1_);}
	.st1{fill:url(#SVGID_2_);}
	.st2{fill:url(#SVGID_3_);}
	.st3{fill:url(#SVGID_4_);}
	.st4{fill:url(#SVGID_5_);}
	.st5{fill:#FFFFFF;}
</style>
<linearGradient id="SVGID_1_" gradientUnits="userSpaceOnUse" x1="683" y1="790" x2="683" y2="22" gradientTransform="matrix(1 0 0 1 0 -22)">
	<stop  offset="0" style="stop-color:#FFFFFF"/>
	<stop  offset="0.6535" style="stop-color:#B5E6F8"/>
	<stop  offset="1" style="stop-color:#92DBF5"/>
</linearGradient>
<path class="st0" d="M0,0h1366v768H0V0z"/>
<linearGradient id="SVGID_2_" gradientUnits="userSpaceOnUse" x1="1064.05" y1="652.6" x2="1064.05" y2="404.9649" gradientTransform="matrix(1 0 0 1 0 -22)">
	<stop  offset="0.1198" style="stop-color:#FFFFFF"/>
	<stop  offset="0.2778" style="stop-color:#E8EDF9"/>
	<stop  offset="0.6068" style="stop-color:#AEBDE9"/>
	<stop  offset="0.7713" style="stop-color:#8FA4E0"/>
</linearGradient>
<path class="st1" d="M1298.1,402l67.9,27.6V617l-603.9,13.6L814.8,470c95.5-31.6,193.4-58.3,292.9-80c32.8-7.2,63.2-8.2,97-6
	c31.2,2,62.8,9.2,92,18.6"/>
<linearGradient id="SVGID_3_" gradientUnits="userSpaceOnUse" x1="137" y1="790.4631" x2="137" y2="790" gradientTransform="matrix(1 0 0 1 0 -22)">
	<stop  offset="9.840000e-02" style="stop-color:#FFFFFF"/>
	<stop  offset="0.2738" style="stop-color:#FAF6FC"/>
	<stop  offset="0.5652" style="stop-color:#EBDCF4"/>
	<stop  offset="0.9348" style="stop-color:#D4B3E7"/>
	<stop  offset="1" style="stop-color:#CFABE5"/>
</linearGradient>
<path class="st2" d="M274,768.5c-76.2-0.3-189,0-274-0.5"/>
<linearGradient id="SVGID_4_" gradientUnits="userSpaceOnUse" x1="683" y1="790" x2="683" y2="343.2822" gradientTransform="matrix(1 0 0 1 0 -22)">
	<stop  offset="9.840000e-02" style="stop-color:#FFFFFF"/>
	<stop  offset="0.2738" style="stop-color:#FAF6FC"/>
	<stop  offset="0.5652" style="stop-color:#EBDCF4"/>
	<stop  offset="0.9348" style="stop-color:#D4B3E7"/>
	<stop  offset="1" style="stop-color:#CFABE5"/>
</linearGradient>
<path class="st3" d="M1366,768V563.4c-165.6-64.2-425.3-139.9-590.9-204.1c-47-18.2-97.8-32-148-36c-54.4-4.3-103.2-2.3-156,11.6
	c-160,42-317.4,93.8-471,155L0,768"/>
<linearGradient id="SVGID_5_" gradientUnits="userSpaceOnUse" x1="683" y1="790" x2="683" y2="639" gradientTransform="matrix(1 0 0 1 0 -22)">
	<stop  offset="0" style="stop-color:#FFFFFF"/>
	<stop  offset="0.1588" style="stop-color:#F3FDE4"/>
	<stop  offset="0.3452" style="stop-color:#E9FCCB"/>
	<stop  offset="0.5412" style="stop-color:#E1FBBA"/>
	<stop  offset="0.7513" style="stop-color:#DCFAAF"/>
	<stop  offset="1" style="stop-color:#DBFAAC"/>
</linearGradient>
<path class="st4" d="M0,617h1366v151H0V617z"/>
<g>
	<path class="st5" d="M469.5,329.5c-0.8-0.1-8.5-1.3-13.3,4c-2,2.2-4.5,6.6-2.9,9.8c1.8,3.5,6.2,4.3,10.1,4.8
		c12.2,1.5,24.4,3.1,36.6,4.6c7.1,0.9,14.3,1.8,21.5,1.6c10-0.3,19.8-2.8,28.7-7.2c6-3,12.2-7,18.8-5.6c6.2,1.3,10.4,7,15.5,10.8
		c12.5,9.2,30.3,6.2,44.6,0.1c5.8-2.5,11.6-5.4,17.8-6.2c8.4-1,16.7,1.9,24.8,3.9c16.6,4.2,34,4.9,50.9,2.2c3.3-0.5,7.5-2.8,6.4-5.9
		c-0.4-1.2-1.6-1.9-2.7-2.6c-12.8-7.4-27.9-9.5-42-14.1c-11.8-3.9-23-9.6-34.6-14.2c-18.7-7.5-38.7-12.1-58.9-11.9
		c-10.7,0.1-20.9,1.7-41.3,5.3c-27.7,4.9-50.8,11.6-69.3,17.1c-8.5,2.5-15.5,4.7-20.2,6.2"/>
	<path class="st5" d="M469.9,328c-5.2-0.8-11,0.3-14.8,4.4c-4.5,4.9-5.5,12.2,1.1,15.4c3.6,1.8,8.1,1.9,12,2.4l19.2,2.4
		c12.1,1.5,24.4,3.9,36.6,3c10.3-0.7,20-3.8,29.1-8.5c5.9-3,12.5-6.4,19-2.9c4.3,2.3,7.4,6.3,11.3,9.2c16.7,12.2,36.9,3.7,53.9-3
		c5.4-2.1,10.8-3.3,16.6-2.8c6.5,0.6,12.8,2.9,19.1,4.3c11.2,2.6,22.8,3.8,34.3,3.3c5.1-0.2,10.5-0.5,15.5-1.5
		c2.7-0.6,6.4-1.8,7.4-4.8c2.4-6.9-11.7-10.6-16.1-12.1c-10.3-3.6-21-5.6-31.3-9.2c-11.2-3.9-21.8-9.2-32.8-13.6
		c-20-8-41.7-12.8-63.3-11.9c-21.2,0.9-42.7,5.7-63.3,10.5c-21.5,5-42.9,11.3-63.9,18c-1.8,0.6-1,3.5,0.8,2.9
		c34.5-11,69.4-20.2,105.2-26c15.9-2.6,31.5-3.4,47.5-0.8c20.7,3.3,39.2,11.7,58.4,19.7c8.8,3.7,17.8,6.4,27.1,8.8
		c4.4,1.2,8.8,2.4,13.1,3.8c2.3,0.8,18.7,5.7,13.7,10.5c-1.5,1.5-6.9,1.6-8.7,1.8c-2.5,0.3-5,0.5-7.6,0.6
		c-5.4,0.3-10.8,0.2-16.1-0.2c-10.9-0.8-21.1-3.7-31.7-6.1c-9-2.1-17.1-1.6-25.7,1.9c-8.7,3.6-17.1,7.4-26.6,8.5
		c-10.2,1.1-19.4-1.1-27.1-8c-5.3-4.7-10.4-9.5-18-8.5c-4.4,0.5-8.5,2.8-12.4,4.8c-5.4,2.8-10.9,5-16.7,6.4
		c-12,2.9-23.9,1.6-35.9,0.1c-12.1-1.5-24.4-2.6-36.5-4.6c-3.1-0.5-5.4-1-7.1-3.8c-2-3.4,0.4-7.5,3.5-9.7c2.8-2,6.7-2.6,10.1-2
		C471,331.2,471.8,328.4,469.9,328L469.9,328z"/>
	<path class="st5" d="M1010.8,411.5c38.7-21.5,78.3-43.2,121.7-52.1c7.4-1.5,15-2.7,22.6-2.2c8.1,0.4,16,2.6,23.8,5
		c42.4,12.7,89.6,26.4,119.6,41.4c-22.4,7.2-36.8-0.7-58.2,0.3c-9.9,0.5-19.7,2.9-29.7,3.2c-9.9,0.4-20.3-1-28.7-6.3
		c-2.8-1.8-5.5-4-8.7-4.7c-7.3-1.6-13.6,4.8-19.6,9.3c-10.6,7.9-25.2,10.8-37.5,5.9c-4.9-2-9.2-5.1-14-7.2
		c-11.2-5.1-24.2-5-36.4-2.7s-23.8,6.6-35.8,9.7c-6.2,1.6-12.6,2.8-18.8,1.7c0.3-1.5,1.4-2.8,2.7-3.4"/>
	<path class="st5" d="M1011.6,412.8c35.3-19.6,71.3-39.4,110.7-49.5c10.3-2.6,21.1-5.1,31.9-4.7c10.7,0.4,21,4,31.1,7
		c19,5.7,38,11.3,56.8,17.5c18.9,6.2,37.8,12.8,55.6,21.7c0.1-0.9,0.2-1.8,0.4-2.7c-9.6,3-19.2,3.5-29.1,2.4
		c-9-0.9-17.9-2.5-26.9-2.2c-20.7,0.6-41.8,8.6-60.8-3.6c-6.9-4.5-12.6-5.5-19.8-1c-8,5-13.9,11.2-23.4,13.5
		c-11,2.7-20.2-0.2-29.8-5.5c-8.1-4.5-16.5-7-25.8-7.2c-11.1-0.3-21.9,2.3-32.4,5.3c-12.2,3.5-25.6,9.4-38.5,7.6
		c0.3,0.6,0.7,1.2,1,1.9c0.7-0.8,1.4-1.7,2-2.5c1.7-1,0.1-3.6-1.5-2.6c-1.8,1.1-2.7,2.3-3.4,4.3c-0.2,0.7,0.3,1.7,1,1.9
		c10.1,1.4,19.8-1.6,29.5-4.5c10.7-3.1,21.4-6.7,32.6-7.9c11.3-1.2,22.4,0.1,32.5,5.6c7.8,4.3,15.1,8,24.2,7.9
		c7.9-0.1,15.8-2.5,22.4-6.8c3.7-2.4,6.9-5.4,10.5-7.8c2.3-1.6,5.1-3.1,7.9-3.2c3.7-0.2,6.5,2,9.4,3.8c17.4,11.1,36.7,6.4,55.9,4.5
		c10.8-1,21.2,0.5,31.8,1.6c10.7,1.2,21,0.8,31.4-2.4c1.2-0.4,1.6-2.1,0.4-2.7c-34.1-16.9-71.6-27.1-108-37.9
		c-9.9-3-19.9-6.5-30.2-8c-10-1.5-20-0.2-29.8,1.9c-20,4.2-39.3,11.1-57.9,19.4c-21.7,9.6-42.5,21.1-63.2,32.7
		C1008.4,411.1,1009.9,413.7,1011.6,412.8L1011.6,412.8z"/>
</g>
</svg>
