<svg xmlns="http://www.w3.org/2000/svg" viewBox="0 0 524.38 753"><defs><style>.cls-1{fill:#947a69;}.cls-2{fill:#9dc3e6;}.cls-3{fill:#c5e0b4;}.cls-4{fill:#ffe699;}.cls-5{fill:#f8cbad;}.cls-6{fill:#fff;stroke:#aaa;stroke-width:2px;}.cls-6,.cls-8,.cls-9{stroke-miterlimit:10;}.cls-7{fill:#ffdbdd;}.cls-8{fill:none;}.cls-8,.cls-9{stroke:#aeaeae;stroke-width:3px;}.cls-9{fill:#aeaeae;}</style></defs><g id="Layer_6" data-name="Layer 6"><polygon class="cls-1" points="218.24 617.53 206.61 617.53 177.33 526.18 188.19 526.18 218.24 617.53"/></g><g id="Layer_2" data-name="Layer 2"><ellipse class="cls-2" cx="262.19" cy="272.5" rx="262.19" ry="272.5"/><g id="Layer_3" data-name="Layer 3"><ellipse class="cls-3" cx="263.35" cy="272.5" rx="205.45" ry="272.5"/></g><g id="Layer_4" data-name="Layer 4"><ellipse class="cls-4" cx="262.19" cy="272.5" rx="133.18" ry="272.5"/></g><g id="Layer_5" data-name="Layer 5"><ellipse class="cls-5" cx="262.19" cy="272.5" rx="57.01" ry="272.5"/></g></g><g id="Layer_7" data-name="Layer 7"><polygon class="cls-6" points="188.37 587.12 183.3 602.05 188.37 613.33 179.17 616.97 206.61 617.53 213.33 604.54 200.94 603.54 188.37 587.12"/><g id="Layer_8" data-name="Layer 8"><polygon class="cls-6" points="321.41 612.58 344.44 596.29 338.68 576.4 347.89 580.95 346.74 567.12 344.63 562 349.24 567.5 354.23 562 353.27 555.75 345.78 543.25 354.23 552.53 354.23 535.67 348.09 527.34 357.49 519.38 338.68 499.87 341.18 475.62 339.45 470.88 335.23 463.87 329.28 456.3 326.21 455.35 320.07 457.06 297.61 478.08 290.7 478.46 284.18 478.27 278.04 480.74 272.28 484.9 267.29 484.9 258.08 478.84 250.21 477.7 235.43 478.27 231.4 480.17 229.87 485.28 229.87 494 230.63 503.66 238.31 515.59 239.08 519.76 237.93 527.72 224.88 547.99 224.88 551.39 228.33 552.72 239.66 551.77 239.27 554.24 227.18 565.98 223.34 568.45 234.47 569.77 234.09 572.8 229.1 575.08 209.14 583.79 222.19 587.39 214.51 593.83 203.38 602.73 210.87 603.87 206.61 617.53 319.49 617.13 321.41 612.58"/></g><g id="Layer_9" data-name="Layer 9"><polygon class="cls-6" points="341.54 601.38 340.22 617.13 319.49 617.13 321.41 612.58 339.68 599.66 341.54 599.66 341.54 601.38"/></g><polyline class="cls-1" points="170.53 617.53 204.32 753 320.32 753 354.11 617.53"/></g><g id="Layer_11" data-name="Layer 11"><polygon class="cls-7" points="307.81 480.88 308.72 482.12 313.03 482.92 317 482.92 318.36 482.92 320.28 484.16 323.46 486.2 326.4 490.51 328.22 491.3 329.46 491.3 330.26 486.09 330.26 480.2 330.26 473.74 328.22 467.16 326.06 465.35 324.25 465.35 322.1 466.14 318.13 469.65 314.62 472.38 311.1 476.34 309.18 478.32 307.81 480.88"/><polygon class="cls-7" points="249.55 513.18 250.35 511.37 251.25 508.31 252.95 506.04 253.86 504.11 256.35 501.62 259.81 499.13 262.19 496.74 264.74 495.27 263.61 493.57 260.32 491.3 256.47 489.38 252.05 488.24 248.87 487.56 244.79 487.56 242.53 487 241.28 488.13 240.82 489.72 240.82 491.87 240.82 495.95 241.28 500.09 242.07 502.75 243.66 506.15 245.93 509.33 247.06 511.25 249.55 513.18"/><polyline class="cls-7" points="288.77 553.42 297.36 564.31 303.43 567.5 310.06 565.63 313.84 560.8 314.82 556.15 313.82 549.45 313.25 545.88 302.63 547.75 294.78 552.94"/></g><g id="Layer_10" data-name="Layer 10"><path class="cls-8" d="M327.3,569.55c2.34,2.28,6.1,5.05,9.87,5.37A12.26,12.26,0,0,0,342,574a6.58,6.58,0,0,0,3.28-1.88,17.66,17.66,0,0,0,2.58-5.22,9.82,9.82,0,0,0,3.32,2.75,5.79,5.79,0,0,0,2.62.21,13.31,13.31,0,0,0,6.82-3.17,39.28,39.28,0,0,0,5.22-5.56" transform="translate(-46.19 -22)"/><path class="cls-8" d="M360.62,566.67c.17,4.45,1.25,12.08-.59,16.13s-6.12,7.52-10.41,6.69a13.38,13.38,0,0,1-4.93-2.29c-3.23-2.21-7.32-7.48-10.25-11.39l-1.7-2.26" transform="translate(-46.19 -22)"/><path class="cls-8" d="M348.86,567.88c0,2.67-.5,11.2-.5,13.87" transform="translate(-46.19 -22)"/><path class="cls-8" d="M332.74,598.74c2.37.46,7.28,2.06,10.19,2.77a31.57,31.57,0,0,0,7.4.58,23.27,23.27,0,0,0,7.31-.8c3.26-1.09,5.85-3.53,8.33-5.91" transform="translate(-46.19 -22)"/><ellipse class="cls-9" cx="346.32" cy="558.78" rx="10.38" ry="5.21" transform="translate(-155.83 63.2) rotate(-12.12)"/><path class="cls-8" d="M349.61,554.18c0,2.67-.5,11.2-.5,13.87" transform="translate(-46.19 -22)"/><ellipse class="cls-9" cx="321.6" cy="553.91" rx="2.49" ry="3.87" transform="translate(-107.41 18.4) rotate(-6.56)"/><ellipse class="cls-9" cx="362.32" cy="542.64" rx="2.49" ry="3.87" transform="translate(-105.85 22.98) rotate(-6.56)"/></g></svg>