<?xml version="1.0" encoding="utf-8"?>
<!-- Generator: Adobe Illustrator 24.1.0, SVG Export Plug-In . SVG Version: 6.00 Build 0)  -->
<svg version="1.1" id="Layer_1" xmlns="http://www.w3.org/2000/svg" xmlns:xlink="http://www.w3.org/1999/xlink" x="0px" y="0px"
	 viewBox="0 0 524.4 753" style="enable-background:new 0 0 524.4 753;" xml:space="preserve">
<style type="text/css">
	.st0{fill:#FFFFFF;stroke:#AAAAAA;stroke-width:2;stroke-miterlimit:10;}
	.st1{fill:#FFDBDD;}
	.st2{fill:none;stroke:#AEAEAE;stroke-width:3;stroke-miterlimit:10;}
	.st3{fill:#AEAEAE;stroke:#AEAEAE;stroke-width:3;stroke-miterlimit:10;}
</style>
<path class="st0" d="M188.4,587.1l-5.1,14.9l5.1,11.3l-9.2,3.6l27.4,0.6l6.7-13l-12.4-1L188.4,587.1z"/>
<path class="st0" d="M321.4,612.6l23-16.3l-5.8-19.9l9.2,4.5l-1.1-13.8l-2.1-5.1l4.6,5.5l5-5.5l-1-6.2l-7.5-12.5l8.5,9.3v-16.9
	l-6.1-8.3l9.4-8l-18.8-19.5l2.5-24.2l-1.7-4.7l-4.2-7l-6-7.6l-3.1-1l-6.1,1.7l-22.5,21l-6.9,0.4l-6.5-0.2l-6.1,2.5l-5.8,4.2h-5
	l-9.2-6.1l-7.9-1.1l-14.8,0.6l-4,1.9l-1.5,5.1v8.7l0.8,9.7l7.7,11.9l0.8,4.2l-1.1,8L224.9,548v3.4l3.4,1.3l11.3-1l-0.4,2.5
	L227.2,566l-3.8,2.5l11.1,1.3l-0.4,3l-5,2.3l-20,8.7l13.1,3.6l-7.7,6.4l-11.1,8.9l7.5,1.1l-4.3,13.7l112.9-0.4L321.4,612.6z"/>
<path class="st0" d="M341.5,601.4l-1.3,15.8h-20.7l1.9-4.5l18.3-12.9h1.9L341.5,601.4z"/>
<path class="st1" d="M307.8,480.9l0.9,1.2l4.3,0.8h4h1.4l1.9,1.2l3.2,2l2.9,4.3l1.8,0.8h1.2l0.8-5.2v-5.9v-6.5l-2-6.6l-2.2-1.8h-1.8
	l-2.1,0.8l-4,3.5l-3.5,2.7l-3.5,4l-1.9,2L307.8,480.9z"/>
<path class="st1" d="M249.6,513.2l0.8-1.8l0.9-3.1l1.7-2.3l0.9-1.9l2.5-2.5l3.5-2.5l2.4-2.4l2.5-1.5l-1.1-1.7l-3.3-2.3l-3.9-1.9
	l-4.4-1.1l-3.2-0.7h-4.1l-2.3-0.6l-1.2,1.1l-0.5,1.6v2.1v4.1l0.5,4.1l0.8,2.7l1.6,3.4l2.3,3.2l1.1,1.9L249.6,513.2z"/>
<path class="st1" d="M288.8,553.4l8.6,10.9l6.1,3.2l6.6-1.9l3.8-4.8l1-4.7l-1-6.7l-0.6-3.6l-10.6,1.9l-7.9,5.2"/>
<g>
	<path class="st2" d="M281.1,547.5c2.3,2.3,6.1,5,9.9,5.4c1.7,0,3.3-0.3,4.8-0.9c1.3-0.3,2.4-0.9,3.3-1.9c1.1-1.6,2-3.3,2.6-5.2
		c0.9,1.2,2,2.1,3.3,2.8c0.8,0.3,1.7,0.3,2.6,0.2c2.5-0.4,4.9-1.5,6.8-3.2c1.9-1.7,3.7-3.5,5.2-5.6"/>
	<path class="st2" d="M314.4,544.7c0.2,4.5,1.2,12.1-0.6,16.1s-6.1,7.5-10.4,6.7c-1.8-0.4-3.5-1.2-4.9-2.3
		c-3.2-2.2-7.3-7.5-10.2-11.4l-1.7-2.3"/>
	<path class="st2" d="M302.7,545.9c0,2.7-0.5,11.2-0.5,13.9"/>
	<path class="st2" d="M286.5,576.7c2.4,0.5,7.3,2.1,10.2,2.8c2.4,0.5,4.9,0.7,7.4,0.6c2.5,0.1,4.9-0.1,7.3-0.8
		c3.3-1.1,5.9-3.5,8.3-5.9"/>
	<ellipse transform="matrix(0.9777 -0.21 0.21 0.9777 -106.0198 74.9728)" class="st3" cx="300.1" cy="536.8" rx="10.4" ry="5.2"/>
	<path class="st2" d="M303.4,532.2c0,2.7-0.5,11.2-0.5,13.9"/>
	
		<ellipse transform="matrix(0.9935 -0.1142 0.1142 0.9935 -58.9682 34.9415)" class="st3" cx="275.4" cy="531.9" rx="2.5" ry="3.9"/>
	
		<ellipse transform="matrix(0.9935 -0.1142 0.1142 0.9935 -57.4142 39.5204)" class="st3" cx="316.1" cy="520.7" rx="2.5" ry="3.9"/>
</g>
</svg>
